<?xml version="1.0" standalone="no"?>
<!DOCTYPE svg PUBLIC "-//W3C//DTD SVG 20010904//EN"
 "http://www.w3.org/TR/2001/REC-SVG-20010904/DTD/svg10.dtd">
<svg version="1.0" xmlns="http://www.w3.org/2000/svg"
 width="199.000000pt" height="199.000000pt" viewBox="0 0 199.000000 199.000000"
 preserveAspectRatio="xMidYMid meet">
<metadata>
Created by potrace 1.11, written by Peter Selinger 2001-2013
</metadata>
<g transform="translate(0.000000,199.000000) scale(0.100000,-0.100000)"
fill="#000000" stroke="none">
<path d="M1840 1783 c-63 -12 -139 -28 -169 -34 l-53 -11 38 -39 38 -39 -30
-30 -30 -31 -727 1 -727 0 0 -478 0 -477 -90 -90 -90 -90 0 -120 0 -120 470
470 471 470 122 -128 122 -128 315 315 315 316 37 -37 c27 -26 39 -32 42 -22
8 22 66 322 63 324 -1 1 -54 -9 -117 -22z m-1315 -308 l0 -30 -68 -3 -68 -3 3
-37 3 -37 55 -5 c42 -4 56 -9 58 -23 6 -31 -17 -47 -69 -47 l-49 0 0 -60 c0
-55 -2 -60 -25 -66 -50 -12 -55 5 -55 170 0 107 4 156 12 164 9 9 42 12 108
10 l95 -3 0 -30z m275 17 c62 -31 72 -121 20 -177 l-21 -23 31 -56 c17 -30 29
-60 25 -66 -3 -5 -19 -10 -35 -10 -31 0 -51 20 -85 83 -14 26 -26 37 -42 37
-21 0 -23 -4 -23 -55 0 -50 -2 -55 -25 -61 -50 -12 -55 5 -55 170 0 105 4 156
12 164 19 19 156 15 198 -6z"/>
<path d="M670 1396 l0 -46 39 0 c45 0 64 18 59 57 -3 26 -7 28 -50 31 l-48 3
0 -45z"/>
<path d="M1395 880 l-210 -210 -125 125 -125 125 -375 -375 -375 -375 103 0
102 0 0 40 0 40 85 0 85 0 0 -40 c0 -39 1 -40 35 -40 l35 0 0 125 0 125 80 0
80 0 0 -125 0 -125 40 0 40 0 0 250 0 250 80 0 80 0 0 -250 0 -250 40 0 40 0
0 165 0 165 80 0 80 0 0 -165 0 -165 40 0 40 0 0 275 0 275 80 0 80 0 0 -275
0 -275 50 0 50 0 0 460 c0 253 -1 460 -3 460 -1 0 -97 -94 -212 -210z"/>
</g>
</svg>
